<svg width="40" height="40" viewBox="0 0 40 40" fill="none" xmlns="http://www.w3.org/2000/svg">
<path d="M17.59 10.4L11.9517 3.89168C11.3017 3.14168 10.11 3.14501 9.355 3.90168L4.71833 8.54668C3.33833 9.92834 2.94333 11.98 3.74167 13.625C8.51103 23.5 16.4751 31.4752 26.3433 36.2583C27.9867 37.0567 30.0367 36.6617 31.4167 35.28L36.0967 30.5917C36.855 29.8333 36.8567 28.635 36.1 27.985L29.5667 22.3767C28.8833 21.79 27.8217 21.8667 27.1367 22.5533L24.8633 24.83C24.7469 24.952 24.5937 25.0324 24.4273 25.0589C24.2608 25.0854 24.0902 25.0565 23.9417 24.9767C20.2257 22.8368 17.1433 19.7504 15.0083 16.0317C14.9284 15.8829 14.8994 15.7121 14.9259 15.5453C14.9524 15.3785 15.0329 15.225 15.155 15.1083L17.4217 12.84C18.1083 12.15 18.1833 11.0833 17.59 10.3983V10.4Z" fill="#DE6E4B" stroke="#DE6E4B" stroke-width="2" stroke-linecap="round" stroke-linejoin="round"/>
</svg>
