<svg width="70" height="70" viewBox="0 0 70 70" fill="none" xmlns="http://www.w3.org/2000/svg">
<path d="M17.5 13.125C15.1794 13.125 12.9538 14.0469 11.3128 15.6878C9.67187 17.3288 8.75 19.5544 8.75 21.875V22.7544L35 36.89L61.25 22.7588V21.875C61.25 19.5544 60.3281 17.3288 58.6872 15.6878C57.0462 14.0469 54.8206 13.125 52.5 13.125H17.5ZM61.25 27.7244L36.0369 41.3C35.7182 41.4715 35.3619 41.5614 35 41.5614C34.6381 41.5614 34.2818 41.4715 33.9631 41.3L8.75 27.7244V48.125C8.75 50.4456 9.67187 52.6712 11.3128 54.3122C12.9538 55.9531 15.1794 56.875 17.5 56.875H52.5C54.8206 56.875 57.0462 55.9531 58.6872 54.3122C60.3281 52.6712 61.25 50.4456 61.25 48.125V27.7244Z" fill="#4D4D4D"/>
</svg>
