<svg width="32" height="32" viewBox="0 0 32 32" fill="none" xmlns="http://www.w3.org/2000/svg">
<path fill-rule="evenodd" clip-rule="evenodd" d="M11.8864 11.1504H17.8288V14.1104C18.6848 12.408 20.88 10.8784 24.1776 10.8784C30.4992 10.8784 32 14.2672 32 20.4848V32H25.6V21.9008C25.6 18.36 24.744 16.3632 22.5648 16.3632C19.5424 16.3632 18.2864 18.5152 18.2864 21.8992V32H11.8864V11.1504ZM0.912 31.728H7.312V10.8784H0.912V31.728ZM8.2288 4.08C8.22904 4.61644 8.12265 5.14758 7.91582 5.64254C7.70899 6.1375 7.40584 6.58642 7.024 6.9632C6.25024 7.7322 5.2029 8.16265 4.112 8.16C3.02302 8.15927 1.9781 7.72992 1.2032 6.9648C0.822738 6.58674 0.520617 6.13732 0.31415 5.64229C0.107682 5.14726 0.000926611 4.61636 0 4.08C0 2.9968 0.432 1.96 1.2048 1.1952C1.97902 0.429054 3.02438 -0.000478737 4.1136 4.00423e-07C5.2048 4.00423e-07 6.2512 0.4304 7.024 1.1952C7.7952 1.96 8.2288 2.9968 8.2288 4.08Z" fill="#F8F7FF"/>
</svg>
